<svg width="582" height="620" viewBox="0 0 582 620" fill="none" xmlns="http://www.w3.org/2000/svg">
<path d="M452.868 0.000112219L435.875 3.35246L447.274 16.3926L452.868 0.000112219ZM29.1196 372.433L35.0187 367.276L33.0443 365.017L27.1452 370.174L29.1196 372.433ZM46.8169 356.962L58.6151 346.648L56.6407 344.389L44.8425 354.703L46.8169 356.962ZM70.4133 336.334L82.2116 326.02L80.2371 323.761L68.4389 334.075L70.4133 336.334ZM94.0097 315.706L105.808 305.392L103.833 303.133L92.0353 313.447L94.0097 315.706ZM117.606 295.078L129.404 284.764L127.43 282.505L115.632 292.819L117.606 295.078ZM141.203 274.45L153.001 264.136L151.026 261.877L139.228 272.191L141.203 274.45ZM164.799 253.822L176.597 243.508L174.623 241.249L162.824 251.563L164.799 253.822ZM188.395 233.194L200.194 222.88L198.219 220.621L186.421 230.935L188.395 233.194ZM211.992 212.566L223.79 202.252L221.815 199.993L210.017 210.307L211.992 212.566ZM235.588 191.938L247.386 181.624L245.412 179.365L233.614 189.679L235.588 191.938ZM259.185 171.31L270.983 160.996L269.008 158.737L257.21 169.051L259.185 171.31ZM282.781 150.682L294.579 140.368L292.605 138.11L280.806 148.423L282.781 150.682ZM306.377 130.054L318.176 119.74L316.201 117.482L304.403 127.796L306.377 130.054ZM329.974 109.426L341.772 99.1123L339.797 96.8537L327.999 107.168L329.974 109.426ZM353.57 88.7983L365.368 78.4843L363.394 76.2257L351.596 86.5397L353.57 88.7983ZM377.166 68.1704L388.965 57.8564L386.99 55.5978L375.192 65.9118L377.166 68.1704ZM400.763 47.5424L412.561 37.2285L410.587 34.9699L398.788 45.2838L400.763 47.5424ZM424.359 26.9145L436.157 16.6005L434.183 14.3419L422.385 24.6559L424.359 26.9145Z" fill="black"/>
<path d="M582 1.15161L565.416 6.14925L578.036 18.0125L582 1.15161ZM3.09292 619.179L8.66985 613.246L6.484 611.192L0.907076 617.124L3.09292 619.179ZM19.8237 601.381L30.9775 589.516L28.7917 587.461L17.6378 599.326L19.8237 601.381ZM42.1314 577.65L53.2852 565.785L51.0994 563.73L39.9455 575.595L42.1314 577.65ZM64.4391 553.919L75.5929 542.054L73.4071 539.999L62.2532 551.865L64.4391 553.919ZM86.7468 530.189L97.9006 518.323L95.7148 516.268L84.5609 528.134L86.7468 530.189ZM109.054 506.458L120.208 494.592L118.022 492.538L106.869 504.403L109.054 506.458ZM131.362 482.727L142.516 470.862L140.33 468.807L129.176 480.672L131.362 482.727ZM153.67 458.996L164.824 447.131L162.638 445.076L151.484 456.942L153.67 458.996ZM175.978 435.266L187.131 423.4L184.945 421.345L173.792 433.211L175.978 435.266ZM198.285 411.535L209.439 399.669L207.253 397.615L196.099 409.48L198.285 411.535ZM220.593 387.804L231.747 375.939L229.561 373.884L218.407 385.749L220.593 387.804ZM242.901 364.073L254.054 352.208L251.869 350.153L240.715 362.019L242.901 364.073ZM265.208 340.343L276.362 328.477L274.176 326.422L263.022 338.288L265.208 340.343ZM287.516 316.612L298.67 304.746L296.484 302.692L285.33 314.557L287.516 316.612ZM309.824 292.881L320.977 281.016L318.792 278.961L307.638 290.826L309.824 292.881ZM332.131 269.15L343.285 257.285L341.099 255.23L329.945 267.096L332.131 269.15ZM354.439 245.419L365.593 233.554L363.407 231.499L352.253 243.365L354.439 245.419ZM376.747 221.689L387.901 209.823L385.715 207.769L374.561 219.634L376.747 221.689ZM399.054 197.958L410.208 186.092L408.022 184.038L396.869 195.903L399.054 197.958ZM421.362 174.227L432.516 162.362L430.33 160.307L419.176 172.172L421.362 174.227ZM443.67 150.496L454.824 138.631L452.638 136.576L441.484 148.442L443.67 150.496ZM465.978 126.765L477.131 114.9L474.946 112.845L463.792 124.711L465.978 126.765ZM488.285 103.035L499.439 91.1693L497.253 89.1145L486.099 100.98L488.285 103.035ZM510.593 79.3039L521.747 67.4385L519.561 65.3837L508.407 77.2491L510.593 79.3039ZM532.901 55.5731L544.055 43.7077L541.869 41.6529L530.715 53.5183L532.901 55.5731ZM555.208 31.8423L566.362 19.9769L564.176 17.9221L553.023 29.7875L555.208 31.8423Z" fill="black"/>
</svg>
