<svg width="426" height="373" viewBox="0 0 426 373" fill="none" xmlns="http://www.w3.org/2000/svg">
<path d="M425.868 0.000112219L408.875 3.35246L420.274 16.3926L425.868 0.000112219ZM2.11964 372.433L8.01874 367.276L6.04426 365.017L0.145155 370.174L2.11964 372.433ZM19.8169 356.962L31.6151 346.648L29.6407 344.389L17.8425 354.703L19.8169 356.962ZM43.4133 336.334L55.2116 326.02L53.2371 323.761L41.4389 334.075L43.4133 336.334ZM67.0097 315.706L78.808 305.392L76.8335 303.133L65.0353 313.447L67.0097 315.706ZM90.6062 295.078L102.404 284.764L100.43 282.505L88.6317 292.819L90.6062 295.078ZM114.203 274.45L126.001 264.136L124.026 261.877L112.228 272.191L114.203 274.45ZM137.799 253.822L149.597 243.508L147.623 241.249L135.824 251.563L137.799 253.822ZM161.395 233.194L173.194 222.88L171.219 220.621L159.421 230.935L161.395 233.194ZM184.992 212.566L196.79 202.252L194.815 199.993L183.017 210.307L184.992 212.566ZM208.588 191.938L220.386 181.624L218.412 179.365L206.614 189.679L208.588 191.938ZM232.185 171.31L243.983 160.996L242.008 158.737L230.21 169.051L232.185 171.31ZM255.781 150.682L267.579 140.368L265.605 138.11L253.806 148.423L255.781 150.682ZM279.377 130.054L291.176 119.74L289.201 117.482L277.403 127.796L279.377 130.054ZM302.974 109.426L314.772 99.1123L312.797 96.8537L300.999 107.168L302.974 109.426ZM326.57 88.7983L338.368 78.4843L336.394 76.2257L324.596 86.5397L326.57 88.7983ZM350.166 68.1704L361.965 57.8564L359.99 55.5978L348.192 65.9118L350.166 68.1704ZM373.763 47.5424L385.561 37.2285L383.587 34.9699L371.788 45.2838L373.763 47.5424ZM397.359 26.9145L409.157 16.6005L407.183 14.3419L395.385 24.6559L397.359 26.9145Z" fill="black"/>
</svg>
