<svg width="17" height="30" viewBox="0 0 17 30" fill="none" xmlns="http://www.w3.org/2000/svg">
<path d="M10.2739 22.8593L10.2739 2.4198C10.2739 1.3351 9.35918 0.5 8.30484 0.5C7.23603 0.5 6.36772 1.34919 6.36772 2.4198L6.36772 22.8593L4.12134 20.64L4.11626 20.635L4.11104 20.6301C3.34842 19.9186 2.10822 19.9039 1.36462 20.6818C0.642402 21.4372 0.628128 22.6332 1.37463 23.3707L6.95868 28.8875C7.67458 29.6307 8.87746 29.7342 9.6679 28.9967L9.82679 28.8484L9.82679 28.7453L15.267 23.3707L15.2721 23.3657L15.277 23.3605C16.0007 22.6035 16.0154 21.3678 15.2247 20.6301C14.4635 19.9198 13.2633 19.9059 12.5203 20.64L10.2739 22.8593Z" fill="#F8F8F8" stroke="black"/>
</svg>
