<svg width="582" height="619" viewBox="0 0 582 619" fill="none" xmlns="http://www.w3.org/2000/svg">
<path d="M582 0.151611L565.416 5.14925L578.036 17.0125L582 0.151611ZM3.09292 618.179L8.66985 612.246L6.484 610.192L0.907076 616.124L3.09292 618.179ZM19.8237 600.381L30.9775 588.516L28.7917 586.461L17.6378 598.326L19.8237 600.381ZM42.1314 576.65L53.2852 564.785L51.0994 562.73L39.9455 574.595L42.1314 576.65ZM64.4391 552.919L75.5929 541.054L73.4071 538.999L62.2532 550.865L64.4391 552.919ZM86.7468 529.189L97.9006 517.323L95.7148 515.268L84.5609 527.134L86.7468 529.189ZM109.054 505.458L120.208 493.592L118.022 491.538L106.869 503.403L109.054 505.458ZM131.362 481.727L142.516 469.862L140.33 467.807L129.176 479.672L131.362 481.727ZM153.67 457.996L164.824 446.131L162.638 444.076L151.484 455.942L153.67 457.996ZM175.978 434.266L187.131 422.4L184.945 420.345L173.792 432.211L175.978 434.266ZM198.285 410.535L209.439 398.669L207.253 396.615L196.099 408.48L198.285 410.535ZM220.593 386.804L231.747 374.939L229.561 372.884L218.407 384.749L220.593 386.804ZM242.901 363.073L254.054 351.208L251.869 349.153L240.715 361.019L242.901 363.073ZM265.208 339.343L276.362 327.477L274.176 325.422L263.022 337.288L265.208 339.343ZM287.516 315.612L298.67 303.746L296.484 301.692L285.33 313.557L287.516 315.612ZM309.824 291.881L320.977 280.016L318.792 277.961L307.638 289.826L309.824 291.881ZM332.131 268.15L343.285 256.285L341.099 254.23L329.945 266.096L332.131 268.15ZM354.439 244.419L365.593 232.554L363.407 230.499L352.253 242.365L354.439 244.419ZM376.747 220.689L387.901 208.823L385.715 206.769L374.561 218.634L376.747 220.689ZM399.054 196.958L410.208 185.092L408.022 183.038L396.869 194.903L399.054 196.958ZM421.362 173.227L432.516 161.362L430.33 159.307L419.176 171.172L421.362 173.227ZM443.67 149.496L454.824 137.631L452.638 135.576L441.484 147.442L443.67 149.496ZM465.978 125.765L477.131 113.9L474.946 111.845L463.792 123.711L465.978 125.765ZM488.285 102.035L499.439 90.1693L497.253 88.1145L486.099 99.9799L488.285 102.035ZM510.593 78.3039L521.747 66.4385L519.561 64.3837L508.407 76.2491L510.593 78.3039ZM532.901 54.5731L544.055 42.7077L541.869 40.6529L530.715 52.5183L532.901 54.5731ZM555.208 30.8423L566.362 18.9769L564.176 16.9221L553.023 28.7875L555.208 30.8423Z" fill="black"/>
</svg>
