<svg width="25" height="25" viewBox="0 0 25 25" fill="none" xmlns="http://www.w3.org/2000/svg">
<path d="M18.5943 1.81469L18.1572 2.25171C17.9617 2.44722 17.6452 2.44722 17.4502 2.25171C17.2552 2.0562 17.2547 1.73969 17.4502 1.54468L17.6737 1.32117C16.1072 0.571641 14.3531 0.151123 12.5005 0.151123C5.87273 0.151123 0.5 5.52385 0.5 12.1516C0.5 14.0042 0.920518 15.7583 1.67005 17.3248L1.89356 17.1013C2.08907 16.9058 2.40558 16.9058 2.60059 17.1013C2.7956 17.2968 2.7961 17.6134 2.60059 17.8084L2.16357 18.2454C2.50908 18.8304 2.9026 19.3829 3.33912 19.8985L20.2473 2.99024C19.7318 2.55372 19.1793 2.16021 18.5943 1.81469ZM5.42871 14.9802L4.01465 16.3943C3.81914 16.5898 3.50263 16.5898 3.30762 16.3943C3.11261 16.1988 3.11211 15.8823 3.30762 15.6873L4.72168 14.2732C4.91719 14.0782 5.2337 14.0782 5.42871 14.2732C5.62422 14.4687 5.62422 14.7852 5.42871 14.9802ZM8.25733 12.1516L6.84327 13.5657C6.64776 13.7612 6.33125 13.7612 6.13624 13.5657C5.94123 13.3702 5.94073 13.0537 6.13624 12.8587L7.5503 11.4446C7.74581 11.2491 8.06232 11.2491 8.25733 11.4446C8.45284 11.6396 8.45284 11.9566 8.25733 12.1516ZM11.0859 9.32301L9.67189 10.7371C9.47638 10.9326 9.15987 10.9326 8.96486 10.7371C8.76985 10.5416 8.76935 10.225 8.96486 10.03L10.3789 8.61598C10.5739 8.42047 10.8909 8.42047 11.0859 8.61598C11.281 8.81149 11.2815 9.128 11.0859 9.32301ZM13.9146 6.49439L12.5005 7.90845C12.305 8.10396 11.9885 8.10396 11.7935 7.90845C11.598 7.71294 11.598 7.39643 11.7935 7.20142L13.2075 5.78736C13.403 5.59185 13.7196 5.59185 13.9146 5.78736C14.1096 5.98287 14.1101 6.29938 13.9146 6.49439ZM16.7432 3.66577L15.3291 5.07983C15.1336 5.27534 14.8171 5.27534 14.6221 5.07983C14.4271 4.88432 14.4271 4.56781 14.6221 4.3728L16.0362 2.95874C16.2317 2.76323 16.5482 2.76323 16.7432 2.95874C16.9382 3.15425 16.9387 3.47076 16.7432 3.66577Z" fill="white"/>
<path d="M23.3305 6.97839L23.107 7.2019C22.9115 7.39741 22.5949 7.39741 22.3999 7.2019C22.2049 7.00639 22.2044 6.68988 22.3999 6.49487L22.8369 6.05785C22.4914 5.47283 22.0979 4.92031 21.6614 4.40479L4.75269 21.313C5.26821 21.7495 5.82073 22.143 6.40576 22.4885L6.84277 22.0515C7.03828 21.856 7.3548 21.856 7.5498 22.0515C7.74481 22.247 7.74531 22.5636 7.5498 22.7586L7.32629 22.9821C8.89286 23.7316 10.6469 24.1521 12.4995 24.1521C19.1273 24.1521 24.5 18.7794 24.5 12.1516C24.5 10.299 24.08 8.54496 23.3305 6.97839ZM10.3784 19.9304L8.96436 21.3445C8.76886 21.54 8.45234 21.54 8.25733 21.3445C8.06232 21.149 8.06182 20.8325 8.25733 20.6375L9.67139 19.2234C9.8669 19.0279 10.1834 19.0279 10.3784 19.2234C10.5734 19.4189 10.5734 19.7354 10.3784 19.9304ZM13.207 17.1018L11.793 18.5159C11.5975 18.7114 11.281 18.7114 11.086 18.5159C10.8909 18.3204 10.8904 18.0039 11.086 17.8089L12.5 16.3948C12.6955 16.1993 13.012 16.1993 13.207 16.3948C13.4026 16.5903 13.4026 16.9068 13.207 17.1018ZM16.0357 14.2732L14.6216 15.6873C14.4266 15.8828 14.1096 15.8828 13.9146 15.6873C13.7196 15.4918 13.7191 15.1752 13.9146 14.9802L15.3286 13.5662C15.5241 13.3707 15.8407 13.3707 16.0357 13.5662C16.2307 13.7617 16.2312 14.0782 16.0357 14.2732ZM18.8643 11.4446L17.4502 12.8586C17.2547 13.0542 16.9382 13.0542 16.7432 12.8586C16.5477 12.6636 16.5477 12.3466 16.7432 12.1516L18.1573 10.7376C18.3528 10.542 18.6693 10.542 18.8643 10.7376C19.0593 10.9331 19.0598 11.2496 18.8643 11.4446ZM21.6929 8.61596L20.2788 10.03C20.0833 10.225 19.7668 10.225 19.5718 10.03C19.3763 9.83451 19.3763 9.518 19.5718 9.32299L20.9859 7.90893C21.1814 7.71342 21.4979 7.71342 21.6929 7.90893C21.8879 8.10444 21.8884 8.42096 21.6929 8.61596Z" fill="white"/>
</svg>
