<svg width="16" height="17" viewBox="0 0 16 17" fill="none" xmlns="http://www.w3.org/2000/svg">
<path d="M15.18 4.91056C14.4056 3.37096 13.1568 2.12218 11.6172 1.34772H11.5516C10.454 0.804699 9.24605 0.523155 8.02197 0.524695C5.9024 0.527009 3.86911 1.367 2.36641 2.86267C0.863832 4.35753 0.0130389 6.38621 6.30476e-06 8.50579C-0.00153628 9.72991 0.28001 10.9378 0.823035 12.0355C0.81995 12.0571 0.81995 12.0794 0.823035 12.101C1.6075 13.6468 2.87172 14.8971 4.42675 15.6639H4.49231C6.50092 16.645 8.82803 16.7406 10.9107 15.9277C12.9925 15.1154 14.6394 13.4678 15.4523 11.386C16.2653 9.30333 16.1697 6.97622 15.1886 4.96762C15.1878 4.94833 15.1847 4.92908 15.18 4.91056ZM8.02198 1.71797C8.84886 1.71951 9.66879 1.87301 10.4409 2.17075C10.4386 2.33659 10.5042 2.49702 10.6222 2.61505C10.7356 2.73383 10.8937 2.7994 11.058 2.79554C11.2007 2.794 11.3372 2.74155 11.4444 2.64744C11.7668 2.83951 12.0746 3.05394 12.3662 3.2892L2.80537 12.85C2.57012 12.5584 2.35569 12.2507 2.16362 11.9282C2.38114 11.6976 2.38114 11.3366 2.16362 11.106C2.04637 10.988 1.88594 10.9224 1.71932 10.9247C0.917897 8.84523 1.19095 6.50331 2.45055 4.66452C3.70938 2.82487 5.79281 1.7233 8.02198 1.71797ZM8.02198 15.2936C7.1951 15.2921 6.37517 15.1386 5.60305 14.8408C5.60536 14.675 5.5398 14.5146 5.42178 14.3965C5.19114 14.1798 4.83016 14.1798 4.59952 14.3965C4.2771 14.2045 3.96934 13.99 3.67776 13.7548L13.2386 4.16158C13.4738 4.45316 13.6883 4.76093 13.8803 5.08334C13.6628 5.31398 13.6628 5.67497 13.8803 5.9056C13.9937 6.02516 14.1518 6.09073 14.3161 6.08687C15.1176 8.16557 14.8453 10.5051 13.588 12.3441C12.3307 14.1831 10.2497 15.2859 8.02187 15.2938L8.02198 15.2936ZM13.6829 6.13622C13.9235 6.37689 13.9235 6.76718 13.6829 7.00862L13.1314 7.56013V7.55936C12.8907 7.80003 12.5004 7.80003 12.259 7.55936C12.0183 7.31869 12.0183 6.92841 12.259 6.68774L12.8105 6.13622C13.0511 5.89555 13.4414 5.89555 13.6829 6.13622ZM8.74628 11.0728C8.98695 11.3135 8.98695 11.7038 8.74628 11.9452L8.19476 12.4967V12.496C7.95409 12.7366 7.56381 12.7366 7.32237 12.496C7.0817 12.2553 7.0817 11.865 7.32237 11.6243L7.87388 11.0728C8.11686 10.8476 8.49481 10.8545 8.7293 11.089L8.74628 11.0728ZM10.3915 9.42755C10.6322 9.66822 10.6322 10.0585 10.3915 10.2992L9.84003 10.8422C9.7251 10.9587 9.56775 11.0242 9.40423 11.0235C9.23993 11.0273 9.08181 10.9618 8.96842 10.8422C8.85041 10.728 8.78407 10.5707 8.78407 10.4064C8.78407 10.2421 8.85041 10.0847 8.96842 9.9706L9.51145 9.42757C9.75674 9.19154 10.147 9.19847 10.3831 9.44377L10.3915 9.42755ZM12.0368 7.78228V7.78151C12.1548 7.89644 12.2212 8.05379 12.2212 8.21808C12.2212 8.38237 12.1548 8.53896 12.0368 8.65388L11.4853 9.2054H11.4861C11.3704 9.3211 11.213 9.3859 11.0495 9.3859C10.8867 9.38281 10.7309 9.31802 10.6137 9.2054C10.373 8.96396 10.373 8.57368 10.6137 8.33301L11.1652 7.78149C11.2801 7.6681 11.4367 7.60485 11.5987 7.6064C11.7607 7.60794 11.9157 7.6735 12.0291 7.78997L12.0368 7.78228ZM7.10022 12.7189V12.7181C7.34089 12.9595 7.34089 13.3498 7.10022 13.5905L6.5487 14.142H6.54947C6.43223 14.2562 6.27642 14.321 6.1129 14.3225C5.95015 14.3194 5.79433 14.2546 5.6771 14.142C5.43643 13.9006 5.43643 13.5103 5.6771 13.2696L6.22862 12.7181C6.47236 12.5006 6.84492 12.5114 7.07556 12.7428L7.10022 12.7189ZM4.01485 9.22159C3.77418 8.98093 3.77418 8.59064 4.01485 8.3492L4.56636 7.79768V7.79846C4.68052 7.67581 4.83942 7.60485 5.00681 7.60176C5.17419 7.59868 5.33541 7.66424 5.45418 7.78226C5.5722 7.90104 5.63776 8.06226 5.63467 8.22963C5.63159 8.39701 5.56063 8.5559 5.43875 8.67007L4.88724 9.22159C4.64657 9.46226 4.25629 9.46226 4.01485 9.22159ZM5.66012 7.57633H5.66089C5.54287 7.4614 5.47654 7.30404 5.47654 7.13975C5.47654 6.97546 5.54287 6.81887 5.66089 6.70395L6.20391 6.16092C6.44458 5.91795 6.83641 5.91564 7.08016 6.15707C7.32314 6.39774 7.32468 6.78957 7.08402 7.03331L6.5325 7.57634C6.41757 7.69281 6.26022 7.75761 6.0967 7.75683C5.93394 7.75606 5.7789 7.68741 5.66859 7.56786L5.66012 7.57633ZM7.30538 5.93106L7.30616 5.93029C7.06549 5.68962 7.06549 5.29933 7.30616 5.05866L7.85767 4.50714C8.10065 4.28038 8.47937 4.28731 8.71463 4.52257C8.94911 4.75706 8.95606 5.1358 8.72928 5.37953L8.17776 5.93104L8.17854 5.93027C8.06283 6.04597 7.90548 6.11154 7.74196 6.11154C7.58075 6.10382 7.42881 6.03594 7.31463 5.92256L7.30538 5.93106ZM8.95142 4.28502C8.71076 4.04435 8.71076 3.65406 8.95142 3.41262L9.50294 2.86111V2.86188C9.6171 2.73923 9.77599 2.66827 9.94338 2.66519C10.1108 2.6621 10.272 2.72767 10.3908 2.84568C10.5088 2.96447 10.5743 3.12568 10.5713 3.29305C10.5682 3.46044 10.4972 3.61932 10.3753 3.7335L9.82381 4.28501C9.58314 4.52568 9.19286 4.52569 8.95142 4.28502ZM2.36879 10.8677L2.36956 10.8669C2.12889 10.6262 2.12889 10.2359 2.36956 9.99526L2.92108 9.44374C3.03523 9.3211 3.19413 9.25013 3.36152 9.24782C3.5289 9.24473 3.69012 9.30953 3.80889 9.42831C3.92691 9.54633 3.99247 9.70755 3.98939 9.87492C3.9863 10.0431 3.91534 10.202 3.7927 10.3161L3.24118 10.8676L3.24195 10.8669C3.12471 10.981 2.9689 11.0466 2.80538 11.0481C2.64108 11.0489 2.48219 10.9872 2.36108 10.8754L2.36879 10.8677Z" fill="black"/>
</svg>
