<svg width="30" height="43" viewBox="0 0 30 43" fill="none" xmlns="http://www.w3.org/2000/svg">
<path d="M15.2241 42.8276C7.33804 42.8276 0.94828 36.197 0.94828 28.0652V14.7207C0.94828 6.58886 7.33804 0 15.2241 0C23.1102 0 29.5 6.58886 29.5 14.7207V28.0652C29.5 36.197 23.1102 42.8276 15.2241 42.8276ZM15.2241 3.54464C9.23879 3.54464 4.38581 8.54884 4.38581 14.7207V28.0652C4.38581 34.2371 9.23879 39.2412 15.2241 39.2412C21.2095 39.2412 26.0625 34.2371 26.0625 28.0652V14.7207C26.0625 8.54884 21.2095 3.54464 15.2241 3.54464Z" fill="#F8F8F8"/>
<path d="M15.2241 17.8448C13.9515 17.8448 12.8448 16.9175 12.8448 15.7462V10.4263C12.8448 9.30371 13.8962 8.32759 15.2241 8.32759C16.5521 8.32759 17.6035 9.25491 17.6035 10.4263V15.7462C17.6035 16.9175 16.5521 17.8448 15.2241 17.8448Z" fill="#F8F8F8"/>
</svg>
